<svg width="69" height="70" viewBox="0 0 69 70" fill="none" xmlns="http://www.w3.org/2000/svg">
<path d="M63.7513 26.7508C62.9235 26.7508 62.2788 26.5161 61.8251 26.0509C61.3675 25.5856 61.1406 24.9295 61.1406 24.0825C61.1406 23.2354 61.3675 22.5833 61.8212 22.118C62.2748 21.6528 62.9195 21.4221 63.7513 21.4221C64.5831 21.4221 65.2278 21.6528 65.6815 22.118C66.1351 22.5833 66.362 23.2394 66.362 24.0825C66.362 24.9295 66.1351 25.5856 65.6775 26.0509C65.2198 26.5161 64.5791 26.7508 63.7513 26.7508ZM63.7513 26.1384C64.3801 26.1384 64.8736 25.9594 65.2238 25.5975C65.574 25.2357 65.7491 24.7346 65.7491 24.0864C65.7491 23.4223 65.574 22.9094 65.2238 22.5435C64.8736 22.1777 64.3841 21.9947 63.7513 21.9947C63.1185 21.9947 62.6251 22.1777 62.2788 22.5435C61.9286 22.9094 61.7535 23.4223 61.7535 24.0864C61.7535 24.7346 61.9286 25.2396 62.2788 25.6015C62.629 25.9594 63.1225 26.1423 63.7513 26.1423V26.1384ZM62.7166 25.4186V22.7304H63.3096V25.4186H62.7166ZM63.1384 24.5636V24.0427H63.9384C64.0498 24.0427 64.1413 24.0109 64.213 23.9433C64.2846 23.8757 64.3204 23.7802 64.3204 23.653C64.3204 23.5178 64.2846 23.4184 64.213 23.3547C64.1413 23.2911 64.0498 23.2593 63.9423 23.2593H63.1424V22.7384H63.9224C64.2488 22.7384 64.4955 22.8259 64.6627 22.9969C64.8298 23.1678 64.9094 23.3905 64.9094 23.657C64.9094 23.9234 64.8258 24.1421 64.6587 24.3131C64.4915 24.4841 64.2448 24.5716 63.9224 24.5716H63.1424L63.1384 24.5636ZM64.2886 25.4146L63.803 24.3688L64.2925 24.0944L64.9492 25.4146H64.2886Z" fill="#3E348D"/>
<path d="M20.6305 69.8768C20.2206 69.7655 19.8266 69.5746 19.4644 69.3002C17.9482 68.151 17.6497 65.9917 18.7998 64.4766L32.0283 47.0472C32.8919 45.9099 34.3684 45.4168 35.7374 45.8224C37.1104 46.2201 38.0934 47.425 38.2088 48.8486L39.2396 61.4305C39.3948 63.3274 37.982 64.9896 36.0876 65.1447C34.1893 65.2998 32.5258 63.8881 32.3706 61.9952L32.0761 58.3884L24.2958 68.6441C23.4163 69.8013 21.9517 70.2467 20.6305 69.8848V69.8768ZM15.5882 55.5213L25.9752 48.3396C27.1492 47.5284 27.7024 46.0769 27.3602 44.6891C27.0219 43.3012 25.8598 42.2713 24.443 42.0924L3.87596 39.0781C1.98561 38.8395 0.262398 40.1796 0.0275963 42.0645C-0.211186 43.9534 1.12599 45.6753 3.01635 45.9099L14.641 47.7988L11.6642 49.8586C10.1002 50.9403 9.70622 53.0876 10.7927 54.6504C11.2702 55.3424 11.9548 55.8037 12.7069 56.0104C13.6581 56.2729 14.7127 56.1258 15.5882 55.5213ZM24.1565 36.8751C25.1872 35.8889 25.5056 34.3658 24.9485 33.0496L16.0618 11.2459C15.3216 9.49223 13.3039 8.66908 11.5488 9.40872C9.79377 10.1484 8.96998 12.1645 9.7102 13.9182L15.0987 27.4227L11.8274 25.8758C10.1082 25.0606 8.05067 25.7963 7.23881 27.5142C6.42297 29.232 7.15921 31.2879 8.87844 32.0992L20.3002 37.4994C20.4832 37.5869 20.6703 37.6545 20.8573 37.7062C22.0114 38.0243 23.269 37.7221 24.1565 36.8751ZM33.0352 28.9656L52.6034 5.52359C53.7535 4.00851 53.455 1.84922 51.9388 0.699981C50.4225 -0.449255 48.2615 -0.151011 47.1114 1.36407L32.9914 17.6283L32.6969 14.0216C32.5417 12.1247 30.8782 10.717 28.9799 10.8721C27.0816 11.0272 25.6728 12.6894 25.828 14.5862L26.8587 27.1682C26.9741 28.5918 27.9571 29.7927 29.3301 30.1944C29.346 30.1984 29.3619 30.2023 29.3779 30.2063C30.7349 30.5801 32.1875 30.091 33.0392 28.9656H33.0352ZM40.6205 33.9205L65.1275 37.0023C67.0178 37.2409 68.7411 35.9008 68.9759 34.0159C69.2146 32.127 67.8735 30.4051 65.9871 30.1705L50.4265 28.214L53.4033 26.1542C54.9673 25.0725 55.3613 22.9252 54.2748 21.3624C53.1924 19.7996 51.0433 19.4059 49.4793 20.4915L39.0923 27.6732C37.9183 28.4844 37.3651 29.9359 37.7074 31.3237C38.0059 32.5485 38.9451 33.495 40.139 33.825C40.2982 33.8688 40.4613 33.9006 40.6285 33.9244L40.6205 33.9205ZM53.5187 65.2322C55.2738 64.4925 56.0976 62.4764 55.3573 60.7227L49.9688 48.5901L53.2401 50.137C54.9594 50.9482 57.0169 50.2165 57.8287 48.4986C58.6446 46.7808 57.9083 44.7249 56.1891 43.9136L44.7674 38.5134C43.4779 37.905 41.9418 38.1516 40.911 39.1377C39.8803 40.1239 39.5619 41.647 40.1191 42.9632L49.0057 63.395C49.4316 64.405 50.2832 65.1089 51.2662 65.3793C51.9865 65.5781 52.7745 65.5463 53.5187 65.2322Z" fill="url(#paint0_linear_2941_4368)"/>
<defs>
<linearGradient id="paint0_linear_2941_4368" x1="58.2594" y1="60.8431" x2="15.5548" y2="11.7871" gradientUnits="userSpaceOnUse">
<stop offset="0.38" stop-color="#3E348D"/>
<stop offset="0.6" stop-color="#4067A5"/>
<stop offset="0.87" stop-color="#42A2C1"/>
<stop offset="1" stop-color="#44B9CC"/>
</linearGradient>
</defs>
</svg>
